<?xml version="1.0" standalone="no"?>
<!DOCTYPE svg PUBLIC "-//W3C//DTD SVG 20010904//EN"
 "http://www.w3.org/TR/2001/REC-SVG-20010904/DTD/svg10.dtd">
<svg version="1.0" xmlns="http://www.w3.org/2000/svg"
 width="240.000000pt" height="240.000000pt" viewBox="0 0 240.000000 240.000000"
 preserveAspectRatio="xMidYMid meet">
<metadata>
Created by potrace 1.14, written by Peter Selinger 2001-2017
</metadata>
<g transform="translate(0.000000,240.000000) scale(0.100000,-0.100000)"
fill="#000000" stroke="none">
<path d="M538 2295 c-2 -2 -18 -6 -36 -10 -156 -27 -330 -153 -411 -297 -68
-120 -91 -221 -87 -383 3 -107 7 -131 38 -223 80 -233 256 -447 593 -722 246
-200 320 -264 400 -346 50 -50 106 -117 125 -148 19 -30 37 -56 40 -56 3 0 21
26 40 57 55 87 184 212 450 433 260 215 414 362 498 473 155 204 215 374 207
592 -5 148 -30 235 -100 345 -207 324 -677 388 -957 130 -35 -32 -79 -83 -98
-114 -19 -31 -38 -56 -41 -56 -3 0 -15 17 -27 38 -44 79 -150 180 -237 224
-82 43 -160 61 -276 64 -64 2 -118 1 -121 -1z"/>
</g>
</svg>
