<?xml version="1.0" standalone="no"?>
<!DOCTYPE svg PUBLIC "-//W3C//DTD SVG 20010904//EN"
 "http://www.w3.org/TR/2001/REC-SVG-20010904/DTD/svg10.dtd">
<svg version="1.0" xmlns="http://www.w3.org/2000/svg"
 width="251.000000pt" height="96.000000pt" viewBox="0 0 251.000000 96.000000"
 preserveAspectRatio="xMidYMid meet">

<g transform="translate(0.000000,96.000000) scale(0.100000,-0.100000)"
fill="#000000" stroke="none">
<path d="M905 742 c-27 -8 -81 -26 -120 -39 -38 -13 -75 -25 -82 -25 -7 -1 -9
-13 -6 -35 6 -38 -10 -63 -41 -63 -28 0 -46 18 -46 47 0 13 -4 23 -9 23 -25 0
-31 -36 -33 -206 l-3 -179 -24 -3 c-37 -6 -51 22 -51 100 l0 68 -75 0 -75 0 0
-68 c0 -82 -14 -108 -53 -98 l-27 6 0 131 c0 120 -1 130 -18 125 -10 -3 -42
-12 -72 -20 -30 -8 -80 -23 -110 -33 l-55 -18 0 -170 c0 -192 8 -220 75 -260
33 -19 54 -20 390 -23 353 -3 355 -3 400 20 33 17 51 35 68 69 22 44 22 51 20
355 l-3 310 -50 -14z m-17 -46 c4 -19 -16 -39 -30 -30 -4 3 -8 16 -8 30 0 19
5 25 17 22 10 -2 19 -12 21 -22z m-204 -142 c13 -12 16 -40 16 -138 0 -134 -8
-160 -51 -154 -24 3 -24 3 -27 142 -3 138 3 166 34 166 7 0 20 -7 28 -16z
m-579 -284 c0 -27 -22 -39 -31 -16 -8 22 3 49 19 43 6 -2 12 -14 12 -27z m779
-13 c-3 -9 -10 -17 -15 -17 -14 0 -22 27 -15 47 6 15 8 15 22 2 8 -9 12 -23 8
-32z m-774 -62 c0 -44 -26 -48 -32 -5 -5 33 -2 40 19 40 8 0 13 -12 13 -35z
m770 0 c0 -24 -5 -35 -15 -35 -15 0 -22 50 -8 63 15 15 23 5 23 -28z m-750
-70 c16 -17 20 -29 14 -35 -14 -14 -54 16 -54 41 0 26 12 24 40 -6z m740 0 c0
-20 -42 -47 -54 -35 -6 6 0 18 15 34 24 25 39 26 39 1z m-642 -38 c3 -15 -2
-18 -30 -15 -22 2 -34 9 -36 21 -3 15 2 18 30 15 22 -2 34 -9 36 -21z m61 14
c17 -11 5 -31 -19 -31 -21 0 -34 15 -25 30 8 12 25 13 44 1z m420 0 c17 -11 5
-31 -19 -31 -24 0 -36 20 -19 31 8 5 16 9 19 9 3 0 11 -4 19 -9z m88 -8 c6
-16 -45 -29 -59 -15 -6 6 -7 15 -3 22 9 14 57 9 62 -7z"/>
<path d="M1915 718 c-3 -7 -4 -117 -3 -243 3 -197 5 -230 18 -230 13 0 15 33
15 239 0 183 -3 240 -12 243 -7 3 -15 -1 -18 -9z"/>
<path d="M2067 723 c-4 -3 -7 -114 -7 -245 0 -205 2 -238 15 -238 13 0 15 34
15 245 0 224 -3 258 -23 238z"/>
<path d="M1120 471 c0 -199 2 -231 15 -231 12 0 15 19 15 110 l0 110 130 0
129 0 3 -107 c2 -88 6 -108 18 -108 13 0 15 32 15 225 0 193 -2 225 -15 225
-12 0 -16 -19 -18 -103 l-3 -103 -127 3 -127 3 -5 99 c-3 67 -9 101 -17 104
-10 3 -13 -47 -13 -227z"/>
<path d="M415 584 c-22 -8 -48 -17 -57 -20 -11 -4 -18 -16 -18 -30 0 -23 3
-24 75 -24 l75 0 0 45 c0 51 -6 53 -75 29z"/>
<path d="M1645 539 c-40 -12 -58 -27 -84 -69 -43 -71 -19 -167 51 -210 58 -35
158 -23 190 24 22 31 -3 35 -39 6 -28 -22 -101 -27 -134 -10 -20 11 -49 60
-49 84 0 13 21 16 123 18 l122 3 -2 39 c-2 22 -10 50 -18 62 -29 44 -106 70
-160 53z m84 -30 c31 -11 61 -52 61 -84 0 -13 -17 -15 -105 -15 -94 0 -105 2
-105 18 0 27 29 63 64 78 38 16 45 17 85 3z"/>
<path d="M2287 536 c-49 -18 -76 -42 -93 -83 -45 -107 26 -213 143 -213 96 0
157 59 157 150 0 110 -105 183 -207 146z m121 -42 c55 -36 64 -137 19 -190
-48 -55 -143 -46 -185 16 -19 28 -23 44 -19 83 9 96 104 144 185 91z"/>
</g>
</svg>
